<svg width="25" height="25" viewBox="0 0 25 25" fill="none" xmlns="http://www.w3.org/2000/svg">
<path d="M17.1875 6.25H7.8125V10.9375H17.1875V6.25Z" stroke="#3761EE" stroke-linecap="round" stroke-linejoin="round"/>
<path d="M20.3125 21.0938V3.90625C20.3125 3.47478 19.9627 3.125 19.5312 3.125L5.46875 3.125C5.03728 3.125 4.6875 3.47478 4.6875 3.90625L4.6875 21.0938C4.6875 21.5252 5.03728 21.875 5.46875 21.875H19.5312C19.9627 21.875 20.3125 21.5252 20.3125 21.0938Z" stroke="#3761EE" stroke-linecap="round" stroke-linejoin="round"/>
<path d="M8.59375 15.2344C9.02522 15.2344 9.375 14.8846 9.375 14.4531C9.375 14.0217 9.02522 13.6719 8.59375 13.6719C8.16228 13.6719 7.8125 14.0217 7.8125 14.4531C7.8125 14.8846 8.16228 15.2344 8.59375 15.2344Z" fill="#3761EE"/>
<path d="M12.5 15.2344C12.9315 15.2344 13.2812 14.8846 13.2812 14.4531C13.2812 14.0217 12.9315 13.6719 12.5 13.6719C12.0685 13.6719 11.7188 14.0217 11.7188 14.4531C11.7188 14.8846 12.0685 15.2344 12.5 15.2344Z" fill="#3761EE"/>
<path d="M16.4062 15.2344C16.8377 15.2344 17.1875 14.8846 17.1875 14.4531C17.1875 14.0217 16.8377 13.6719 16.4062 13.6719C15.9748 13.6719 15.625 14.0217 15.625 14.4531C15.625 14.8846 15.9748 15.2344 16.4062 15.2344Z" fill="#3761EE"/>
<path d="M8.59375 19.1406C9.02522 19.1406 9.375 18.7908 9.375 18.3594C9.375 17.9279 9.02522 17.5781 8.59375 17.5781C8.16228 17.5781 7.8125 17.9279 7.8125 18.3594C7.8125 18.7908 8.16228 19.1406 8.59375 19.1406Z" fill="#3761EE"/>
<path d="M12.5 19.1406C12.9315 19.1406 13.2812 18.7908 13.2812 18.3594C13.2812 17.9279 12.9315 17.5781 12.5 17.5781C12.0685 17.5781 11.7188 17.9279 11.7188 18.3594C11.7188 18.7908 12.0685 19.1406 12.5 19.1406Z" fill="#3761EE"/>
<path d="M16.4062 19.1406C16.8377 19.1406 17.1875 18.7908 17.1875 18.3594C17.1875 17.9279 16.8377 17.5781 16.4062 17.5781C15.9748 17.5781 15.625 17.9279 15.625 18.3594C15.625 18.7908 15.9748 19.1406 16.4062 19.1406Z" fill="#3761EE"/>
</svg>
