<svg width="25" height="25" viewBox="0 0 25 25" fill="none" xmlns="http://www.w3.org/2000/svg">
<path d="M5.85938 6.83594C6.39872 6.83594 6.83594 6.39872 6.83594 5.85938C6.83594 5.32003 6.39872 4.88281 5.85938 4.88281C5.32003 4.88281 4.88281 5.32003 4.88281 5.85938C4.88281 6.39872 5.32003 6.83594 5.85938 6.83594Z" fill="#22314F"/>
<path d="M12.5 6.83594C13.0393 6.83594 13.4766 6.39872 13.4766 5.85938C13.4766 5.32003 13.0393 4.88281 12.5 4.88281C11.9607 4.88281 11.5234 5.32003 11.5234 5.85938C11.5234 6.39872 11.9607 6.83594 12.5 6.83594Z" fill="#22314F"/>
<path d="M19.1406 6.83594C19.68 6.83594 20.1172 6.39872 20.1172 5.85938C20.1172 5.32003 19.68 4.88281 19.1406 4.88281C18.6013 4.88281 18.1641 5.32003 18.1641 5.85938C18.1641 6.39872 18.6013 6.83594 19.1406 6.83594Z" fill="#22314F"/>
<path d="M5.85938 13.4766C6.39872 13.4766 6.83594 13.0393 6.83594 12.5C6.83594 11.9607 6.39872 11.5234 5.85938 11.5234C5.32003 11.5234 4.88281 11.9607 4.88281 12.5C4.88281 13.0393 5.32003 13.4766 5.85938 13.4766Z" fill="#22314F"/>
<path d="M12.5 13.4766C13.0393 13.4766 13.4766 13.0393 13.4766 12.5C13.4766 11.9607 13.0393 11.5234 12.5 11.5234C11.9607 11.5234 11.5234 11.9607 11.5234 12.5C11.5234 13.0393 11.9607 13.4766 12.5 13.4766Z" fill="#22314F"/>
<path d="M19.1406 13.4766C19.68 13.4766 20.1172 13.0393 20.1172 12.5C20.1172 11.9607 19.68 11.5234 19.1406 11.5234C18.6013 11.5234 18.1641 11.9607 18.1641 12.5C18.1641 13.0393 18.6013 13.4766 19.1406 13.4766Z" fill="#22314F"/>
<path d="M5.85938 20.1172C6.39872 20.1172 6.83594 19.68 6.83594 19.1406C6.83594 18.6013 6.39872 18.1641 5.85938 18.1641C5.32003 18.1641 4.88281 18.6013 4.88281 19.1406C4.88281 19.68 5.32003 20.1172 5.85938 20.1172Z" fill="#22314F"/>
<path d="M12.5 20.1172C13.0393 20.1172 13.4766 19.68 13.4766 19.1406C13.4766 18.6013 13.0393 18.1641 12.5 18.1641C11.9607 18.1641 11.5234 18.6013 11.5234 19.1406C11.5234 19.68 11.9607 20.1172 12.5 20.1172Z" fill="#22314F"/>
<path d="M19.1406 20.1172C19.68 20.1172 20.1172 19.68 20.1172 19.1406C20.1172 18.6013 19.68 18.1641 19.1406 18.1641C18.6013 18.1641 18.1641 18.6013 18.1641 19.1406C18.1641 19.68 18.6013 20.1172 19.1406 20.1172Z" fill="#22314F"/>
</svg>
