<svg width="25" height="25" viewBox="0 0 25 25" fill="none" xmlns="http://www.w3.org/2000/svg">
<path d="M12.5 12.5L21.875 3.125" stroke="#3761EE" stroke-linecap="round" stroke-linejoin="round"/>
<path d="M19.131 5.86924C17.4689 4.20221 15.2416 3.21988 12.8898 3.1167C10.5381 3.01352 8.23329 3.797 6.43164 5.31207C4.62998 6.82714 3.46277 8.96338 3.16102 11.298C2.85928 13.6326 3.44498 15.9954 4.80222 17.9187C6.15946 19.8421 8.18931 21.1858 10.49 21.684C12.7907 22.1821 15.1946 21.7984 17.2259 20.6087C19.2571 19.419 20.7678 17.5101 21.4587 15.2598C22.1497 13.0095 21.9707 10.5818 20.9571 8.45713" stroke="#3761EE" stroke-linecap="round" stroke-linejoin="round"/>
<path d="M15.8103 9.18942C15.0361 8.4174 14.016 7.94095 12.9271 7.84285C11.8381 7.74475 10.7492 8.03118 9.84952 8.65239C8.94981 9.27361 8.29613 10.1904 8.00202 11.2434C7.70791 12.2964 7.79195 13.4192 8.23956 14.4167C8.68716 15.4143 9.47004 16.2235 10.4522 16.7038C11.4344 17.1842 12.5538 17.3053 13.616 17.0462C14.6782 16.7871 15.616 16.164 16.2666 15.2854C16.9173 14.4067 17.2396 13.3279 17.1775 12.2363" stroke="#3761EE" stroke-linecap="round" stroke-linejoin="round"/>
</svg>
