<svg width="25" height="25" viewBox="0 0 25 25" fill="none" xmlns="http://www.w3.org/2000/svg">
<g clip-path="url(#clip0_25_21648)">
<path d="M21.0938 21.0937V11.2793C21.092 11.1712 21.0686 11.0645 21.025 10.9655C20.9814 10.8666 20.9185 10.7774 20.8399 10.7031L13.0274 3.60351C12.8833 3.47175 12.6952 3.39868 12.5 3.39868C12.3048 3.39868 12.1167 3.47175 11.9727 3.60351L4.16017 10.7031C4.07971 10.7759 4.01551 10.8648 3.97176 10.9641C3.92801 11.0634 3.90569 11.1708 3.90626 11.2793V21.0937" stroke="#3761EE" stroke-linecap="round" stroke-linejoin="round"/>
<path d="M1.5625 21.0938H23.4375" stroke="#3761EE" stroke-linecap="round" stroke-linejoin="round"/>
<path d="M14.8438 21.0938V15.625C14.8438 15.4178 14.7614 15.2191 14.6149 15.0726C14.4684 14.9261 14.2697 14.8438 14.0625 14.8438H10.9375C10.7303 14.8438 10.5316 14.9261 10.3851 15.0726C10.2386 15.2191 10.1562 15.4178 10.1562 15.625V21.0938" stroke="#3761EE" stroke-linecap="round" stroke-linejoin="round"/>
</g>
<defs>
<clipPath id="clip0_25_21648">
<rect width="25" height="25" fill="white"/>
</clipPath>
</defs>
</svg>
