<svg width="25" height="25" viewBox="0 0 25 25" fill="none" xmlns="http://www.w3.org/2000/svg">
<path d="M23.5059 11.8944L21.0938 13.0956L17.9688 7.11906L20.4102 5.89836C20.5916 5.80587 20.8022 5.78888 20.9962 5.85107C21.1901 5.91327 21.3515 6.04962 21.4453 6.23039L23.8477 10.83C23.8964 10.9221 23.9262 11.023 23.9353 11.1267C23.9445 11.2305 23.9328 11.335 23.901 11.4342C23.8691 11.5334 23.8177 11.6252 23.7499 11.7042C23.682 11.7833 23.5991 11.8479 23.5059 11.8944V11.8944Z" stroke="#3761EE" stroke-linecap="round" stroke-linejoin="round"/>
<path d="M3.90608 12.9981L1.49397 11.7871C1.4011 11.7416 1.31832 11.6779 1.25057 11.5997C1.18282 11.5216 1.13148 11.4306 1.09959 11.3322C1.0677 11.2338 1.05593 11.13 1.06496 11.027C1.07399 10.924 1.10365 10.8238 1.15218 10.7324L3.55452 6.13283C3.6485 5.9522 3.80928 5.8154 4.00263 5.75155C4.19598 5.68771 4.40662 5.70188 4.58968 5.79104L7.03108 7.01174L3.90608 12.9981Z" stroke="#3761EE" stroke-linecap="round" stroke-linejoin="round"/>
<path d="M21.0938 13.0957L19.5312 14.9316L15.9375 18.5254C15.8396 18.617 15.7209 18.6835 15.5916 18.7192C15.4624 18.7549 15.3264 18.7588 15.1953 18.7305L9.53125 17.3145C9.42778 17.2856 9.33137 17.2357 9.24805 17.168L3.90625 12.998" stroke="#3761EE" stroke-linecap="round" stroke-linejoin="round"/>
<path d="M19.5315 14.9316L15.2346 11.8066L13.9846 12.7441C13.4431 13.1483 12.7854 13.3667 12.1096 13.3667C11.4339 13.3667 10.7762 13.1483 10.2346 12.7441L9.7073 12.3438C9.61813 12.276 9.54437 12.19 9.49091 12.0916C9.43745 11.9931 9.40551 11.8844 9.3972 11.7727C9.38889 11.661 9.4044 11.5488 9.44271 11.4436C9.48102 11.3383 9.54125 11.2424 9.61941 11.1621L13.4475 7.34375C13.5194 7.2722 13.6048 7.21553 13.6986 7.17699C13.7924 7.13844 13.893 7.11879 13.9944 7.11915H17.969" stroke="#3761EE" stroke-linecap="round" stroke-linejoin="round"/>
<path d="M7.08984 7.01172L12.0996 5.54687C12.2776 5.49582 12.468 5.50967 12.6367 5.58593L16.0156 7.11914" stroke="#3761EE" stroke-linecap="round" stroke-linejoin="round"/>
<path d="M10.9375 20.791L7.99805 20.0488C7.87826 20.0218 7.76735 19.9646 7.67578 19.8828L5.46875 17.9688" stroke="#3761EE" stroke-linecap="round" stroke-linejoin="round"/>
</svg>
