<svg width="25" height="25" viewBox="0 0 25 25" fill="none" xmlns="http://www.w3.org/2000/svg">
<path d="M19.5312 10.9375V19.6191C19.5312 19.803 19.4582 19.9794 19.3282 20.1094C19.1981 20.2394 19.0218 20.3125 18.8379 20.3125H3.90625C3.69905 20.3125 3.50034 20.2302 3.35382 20.0837C3.20731 19.9372 3.125 19.7385 3.125 19.5312V8.59375C3.125 8.38655 3.20731 8.18784 3.35382 8.04132C3.50034 7.89481 3.69905 7.8125 3.90625 7.8125H8.33008C8.499 7.81319 8.66327 7.86795 8.79883 7.96875L11.5137 10C11.6492 10.1008 11.8135 10.1556 11.9824 10.1562H18.75C18.9572 10.1563 19.1559 10.2386 19.3024 10.3851C19.4489 10.5316 19.5312 10.7303 19.5312 10.9375Z" stroke="#3761EE" stroke-linecap="round" stroke-linejoin="round"/>
<path d="M6.25 7.8125V5.46875C6.25 5.26155 6.33231 5.06284 6.47882 4.91632C6.62534 4.76981 6.82405 4.6875 7.03125 4.6875H11.4551C11.624 4.68819 11.7883 4.74295 11.9238 4.84375L14.6387 6.875C14.7742 6.9758 14.9385 7.03056 15.1074 7.03125H21.875C22.0822 7.03125 22.2809 7.11356 22.4274 7.26007C22.5739 7.40659 22.6562 7.6053 22.6562 7.8125V16.4941C22.6562 16.678 22.5832 16.8544 22.4532 16.9844C22.3231 17.1144 22.1468 17.1875 21.9629 17.1875H19.5312" stroke="#3761EE" stroke-linecap="round" stroke-linejoin="round"/>
</svg>
